PathFileType	4	(X/Y/Z)	/Users/niels/Desktop/University/Third Semester/Perception and Action/Exam/Gymnastics Motion Tracking/Code for Gym Tracking/Analyzed Data/Webcam_Backflip/id16_1_trajectory_Sports2D/id16_1_trajectory_Sports2D_px_person00.trc
DataRate	CameraRate	NumFrames	NumMarkers	Units	OrigDataRate	OrigDataStartFrame	OrigNumFrames
29.7	29.7	9	22	m	29.7	66	100
Frame#	Time	Hip			RHip			RKnee			RAnkle			RBigToe			RSmallToe			RHeel			LHip			LKnee			LAnkle			LBigToe			LSmallToe			LHeel			Neck			Head			Nose			RShoulder			RElbow			RWrist			LShoulder			LElbow			LWrist		
		X1	Y1	Z1	X2	Y2	Z2	X3	Y3	Z3	X4	Y4	Z4	X5	Y5	Z5	X6	Y6	Z6	X7	Y7	Z7	X8	Y8	Z8	X9	Y9	Z9	X10	Y10	Z10	X11	Y11	Z11	X12	Y12	Z12	X13	Y13	Z13	X14	Y14	Z14	X15	Y15	Z15	X16	Y16	Z16	X17	Y17	Z17	X18	Y18	Z18	X19	Y19	Z19	X20	Y20	Z20	X21	Y21	Z21	X22	Y22	Z22
66	2.2222222222222223	0.9283650124446784	-1.0273301352192765	0.0	0.8685678153398333	-1.0270165895343817	0.0	0.855859299673701	-1.071081702127361	0.0	0.81439306640625	-1.04120849609375	0.0	0.6857673339843746	-0.24904003906249994	0.0			0.0			0.0	0.986935363361281	-1.0268308409802223	0.0	0.9928803455883124	-1.0710167931103056	0.0			0.0			0.0			0.0			0.0	0.9268347426298614	-0.6932890649443545	0.0	0.9288746579079816	-0.5581807066821289	0.0	0.9323123749065207	-0.6329165862853408	0.0	0.8409629819944469	-0.7326014701591665	0.0	0.7690788873926423	-0.6374792671305584	0.0	0.7717076019743713	-0.4812643811028042	0.0	1.0122117387533867	-0.7128163310294927	0.0	1.068568132033756	-0.6007918263785228	0.0	1.046511624985787	-0.47051628393921785	0.0
67	2.255892255892256	0.9270565866153304	-1.0237613538737846	0.0	0.8680382185503909	-1.0232795845287506	0.0	0.8563299381940177	-1.071370305163128	0.0	0.81439306640625	-1.04120849609375	0.0	0.6857673339843746	-0.24904003906249994	0.0			0.0			0.0	0.984919561547911	-1.0216968145193128	0.0	0.9922958378714656	-1.0730036035390822	0.0			0.0			0.0			0.0			0.0	0.9177652083750191	-0.69247275570162	0.0	0.9161466318089269	-0.5584387387139718	0.0	0.9211647699430322	-0.6334125899178799	0.0	0.8342500803034203	-0.7325319455654237	0.0	0.7700156758537217	-0.6399162531556492	0.0	0.8044902936967406	-0.48957248308040774	0.0	1.0034081812254834	-0.7088131094362714	0.0	1.0694039995886946	-0.6012066625944104	0.0	1.07722265208925	-0.4713419435298002	0.0
68	2.2895622895622894	0.9247059840230833	-1.0193688185739094	0.0	0.8666124844000238	-1.0194666538994654	0.0	0.8561418758289633	-1.071345832431093	0.0	0.81439306640625	-1.04120849609375	0.0	0.6857673339843746	-0.24904003906249994	0.0			0.0			0.0	0.9821311636860774	-1.0160050367787679	0.0	0.9900836976962589	-1.0744198262926254	0.0			0.0			0.0			0.0			0.0	0.9077841838401175	-0.691268454670261	0.0	0.9026522473928779	-0.5573262594092458	0.0	0.9102707124764299	-0.6331988264919198	0.0	0.8266395809452559	-0.7309777678831272	0.0	0.770183567182592	-0.6428921865275695	0.0	0.8362451323090558	-0.5051087540360613	0.0	0.9939466686778065	-0.7030620013724372	0.0	1.0712103779888111	-0.6017313769998335	0.0	1.1097356268774616	-0.475762570858137	0.0
69	2.323232323232323	0.921391436031037	-1.015419040321604	0.0	0.8643138053583772	-1.0166923051447916	0.0	0.8548820426837637	-1.0713220296355062	0.0	0.81439306640625	-1.04120849609375	0.0	0.6857673339843746	-0.24904003906249994	0.0			0.0			0.0	0.9783970193769891	-1.0114083782625356	0.0	0.9861059404326968	-1.0754464232106733	0.0			0.0			0.0			0.0			0.0	0.8976418015990717	-0.6905576478303059	0.0	0.88930256314417	-0.556012201443486	0.0	0.9004808401110189	-0.6329980392565582	0.0	0.8188660590369158	-0.7286151071386743	0.0	0.7696174755808323	-0.6475241601103715	0.0	0.8647071057126414	-0.528363736028422	0.0	0.9842709580243978	-0.6971543098369811	0.0	1.074069554279869	-0.6043884107642619	0.0	1.141546056401445	-0.485562640620521	0.0
70	2.356902356902357	0.9174089951832216	-1.0127909568801086	0.0	0.8613956917202865	-1.0156975988730457	0.0	0.8524315114171197	-1.0715737710243778	0.0	0.81439306640625	-1.04120849609375	0.0	0.6857673339843746	-0.24904003906249994	0.0			0.0			0.0	0.9736960344217105	-1.0090478535120035	0.0	0.980781603751732	-1.0762806710148711	0.0			0.0			0.0			0.0			0.0	0.8880722604597587	-0.691021045248673	0.0	0.8768465302241545	-0.5556780234864396	0.0	0.8922199303539178	-0.6335177250191105	0.0	0.8114648574238785	-0.7262796253501178	0.0	0.7680856319275291	-0.6549040122039654	0.0	0.8878183512070524	-0.5588867143157178	0.0	0.9749313764997648	-0.6928659814939877	0.0	1.077667926067788	-0.6113126626284165	0.0	1.1701792865676046	-0.5028171687664987	0.0
71	2.3905723905723906	0.9130380301505646	-1.0115608787654682	0.0	0.8581045683318703	-1.0163786354593025	0.0	0.8487352784935387	-1.0722363229137317	0.0	0.81439306640625	-1.04120849609375	0.0	0.6857673339843746	-0.24904003906249994	0.0			0.0			0.0	0.9682320730906879	-1.0088568276519385	0.0	0.9748733855165367	-1.077065783771014	0.0			0.0			0.0			0.0			0.0	0.8797037500000681	-0.692744985382432	0.0	0.8659079582182481	-0.5571397999705426	0.0	0.8852819810176419	-0.6351293331036932	0.0	0.8046773770848621	-0.7245552566063789	0.0	0.7649119762616322	-0.6657013230814398	0.0	0.9037801843714814	-0.5954490257200743	0.0	0.966661557821768	-0.6913647704003023	0.0	1.0814195168627323	-0.6239110403289689	0.0	1.193872836045486	-0.5290787165014694	0.0
72	2.4242424242424243	0.9084466573469137	-1.0113414661944182	0.0	0.8544913075427004	-1.0180031745385654	0.0	0.8437482614549118	-1.073156526893438	0.0	0.81439306640625	-1.04120849609375	0.0	0.6857673339843746	-0.24904003906249994	0.0			0.0			0.0	0.9623855613760801	-1.0100005714934048	0.0	0.9691234126485111	-1.0778465295781305	0.0			0.0			0.0			0.0			0.0	0.8731291187793023	-0.6953405235630384	0.0	0.8570318292557888	-0.5605654481030389	0.0	0.8791113088598115	-0.6378565017880726	0.0	0.7987972471001985	-0.7237957353143185	0.0	0.7590133597089094	-0.6798360400375669	0.0	0.9110494477918484	-0.6361769195953262	0.0	0.9603014472943919	-0.6928932486022237	0.0	1.0847688420444852	-0.6424488087688675	0.0	1.211972844657756	-0.5646642649643925	0.0
73	2.457912457912458	0.9037429128814578	-1.0117718686231605	0.0	0.8505133056842454	-1.0197562345385887	0.0	0.837626843861893	-1.0739633348616417	0.0	0.81439306640625	-1.04120849609375	0.0	0.6857673339843746	-0.24904003906249994	0.0			0.0			0.0	0.9565473452760781	-1.0116923939652467	0.0	0.963947162278063	-1.078536063085121	0.0			0.0			0.0			0.0			0.0	0.8689436358840802	-0.698282521337809	0.0	0.8507631696447907	-0.56530152222913	0.0	0.8734854510989529	-0.6414123767151062	0.0	0.7944279808474165	-0.7243649852937865	0.0	0.7494183485065595	-0.6963694025019648	0.0	0.9086166366288416	-0.6786673235316512	0.0	0.956550594188871	-0.6970090343253392	0.0	1.087370967586992	-0.6661732920509581	0.0	1.224525237428278	-0.6087923178862119	0.0
74	2.4915824915824913	0.8990937789662016	-1.0124701386874404	0.0	0.846325732378259	-1.0208889020540155	0.0	0.830905396310264	-1.0743982880921894	0.0	0.81439306640625	-1.04120849609375	0.0	0.6857673339843746	-0.24904003906249994	0.0			0.0			0.0	0.9510429039206704	-1.0133120517629906	0.0	0.9593370976580976	-1.0789548214752493	0.0			0.0			0.0			0.0			0.0	0.8675424988098237	-0.7009711315968815	0.0	0.8476305428158324	-0.5701276976394047	0.0	0.8689153536719587	-0.6450807896752566	0.0	0.7922042752263796	-0.726407012026007	0.0	0.7361373741580906	-0.7136229581264542	0.0	0.8965846488357967	-0.720245184557208	0.0	0.9557377572316114	-0.7029063260872848	0.0	1.0891498422243275	-0.6935999539698448	0.0	1.2315018907671336	-0.6599929675038889	0.0
